<svg width="53" height="35" viewBox="0 0 53 35" fill="none" xmlns="http://www.w3.org/2000/svg">
<path d="M4.27231 0.198766C4.79429 0.00856178 5.35134 -0.00797871 5.90014 0.00235851C20.8354 0.0292353 35.7706 -0.0307191 50.7037 0.0313042C51.1555 0.434455 51.5888 0.858281 52.02 1.28624C52.0159 3.3144 52.051 5.34256 51.9994 7.36866C51.5269 7.79042 51.0483 8.21424 50.483 8.50989C49.6577 8.3631 48.8201 8.33002 47.9865 8.3693C44.4173 8.35483 40.8439 8.33002 37.2787 8.40858C36.1729 8.32382 35.0608 8.35276 33.955 8.43132C32.1023 8.34242 30.2392 8.30314 28.3845 8.42719C25.5703 8.27006 22.7479 8.40445 19.9317 8.36723C18.3946 8.38997 16.8431 8.23698 15.3205 8.49748C14.8481 8.87996 14.3921 9.29138 14.0207 9.7793C14.029 10.3086 14.029 10.8378 14.029 11.3692C14.5097 12.0369 15.0585 12.9487 16.0158 12.837C27.225 12.8288 38.4341 12.8391 49.6433 12.8308C50.2766 12.7874 50.8151 13.1678 51.4052 13.3291C51.6631 13.6413 52.0737 13.9204 52.0138 14.3814C52.0365 16.1863 52.0262 17.9932 52.02 19.7981C52.0613 20.2219 51.7518 20.5383 51.5558 20.8794C51.267 21.0923 50.9802 21.3074 50.6955 21.5265C50.6212 21.541 50.4747 21.5658 50.4004 21.5782C50.0043 21.6381 49.6082 21.694 49.2079 21.694C38.4836 21.6857 27.7593 21.694 17.035 21.6898C16.3418 21.6857 15.6506 21.6898 14.9595 21.7208C14.8151 21.8966 14.6727 22.0723 14.5262 22.246C14.3694 22.5127 14.2126 22.7814 14.0517 23.0461C13.9795 26.3685 14.0703 29.695 14.0063 33.0174C13.6803 33.9084 12.9582 34.9773 11.8874 34.9297C8.37387 34.9277 4.86238 34.9194 1.34881 34.9318C0.886667 34.6031 0.478162 34.2082 0.0820349 33.805C-0.0396915 32.852 0.0118877 31.8927 0.00569824 30.9354C0.00363508 22.3928 0.00776096 13.8501 0.00363464 5.30742C-0.0273128 4.60862 0.308983 3.98012 0.50292 3.32887C0.775257 2.92159 1.0414 2.51017 1.29724 2.09254C1.73669 1.72661 2.18233 1.36894 2.63829 1.02368C3.16852 0.721829 3.71732 0.453062 4.27231 0.198766Z" fill="url(#paint0_linear_1157_92)"/>
<defs>
<linearGradient id="paint0_linear_1157_92" x1="6.09766" y1="5.83399" x2="31.0977" y2="25.834" gradientUnits="userSpaceOnUse">
<stop stop-color="#E98322"/>
<stop offset="1" stop-color="#323485"/>
</linearGradient>
</defs>
</svg>
