<svg width="463" height="100" viewBox="0 0 463 100" fill="none" xmlns="http://www.w3.org/2000/svg">
<path d="M0.00582544 13.6562C0.0202676 9.10573 -0.0230591 4.55736 0.0264567 0.0089855C152.457 0.0213902 304.885 0.011053 457.315 0.0131205C459.135 0.0689414 460.967 -0.106792 462.779 0.11856C462.75 4.62558 462.768 9.13468 462.768 13.6438C376.98 13.6727 291.19 13.6479 205.402 13.6562C136.936 13.6562 68.4697 13.6562 0.00582544 13.6562Z" fill="white"/>
<path d="M0.00390625 59.061C4.54698 59.0692 9.088 59.0382 13.629 59.0754C13.6043 63.6073 13.6352 68.1391 13.6125 72.6709C18.1597 72.7495 22.709 72.6689 27.2562 72.7102C27.2108 77.2193 27.2335 81.7263 27.2459 86.2354C26.1916 86.4029 25.1208 86.3243 24.0603 86.3429C21.1018 86.3264 18.1432 86.3409 15.1846 86.3491C14.6565 86.3512 14.1304 86.3161 13.6063 86.254C13.6455 81.7346 13.5981 77.2172 13.6311 72.6978C9.53777 72.7102 5.44446 72.6937 1.35115 72.7061C0.901381 72.704 0.451612 72.6792 0.00390625 72.642C0.00803257 68.1143 0.00596941 63.5887 0.00390625 59.061Z" fill="white"/>
<path d="M27.2328 59.0607C45.3865 59.071 63.5423 59.0338 81.696 59.0793C81.6775 63.609 81.7002 68.1409 81.6857 72.6706C85.9234 72.7451 90.1653 72.6748 94.403 72.7078C94.7249 72.7016 95.3665 72.7513 95.2984 72.253C95.3108 67.8556 95.3005 63.4581 95.3026 59.0607C104.383 59.0772 113.462 59.0234 122.54 59.0855C122.532 63.6256 122.512 68.1677 122.551 72.7078C127.088 72.7058 131.622 72.683 136.157 72.7182C136.141 77.2149 136.132 81.7116 136.161 86.2082C134.837 86.4233 133.488 86.3385 132.153 86.3013C128.947 86.3488 125.736 86.3736 122.53 86.3075C122.54 81.7777 122.522 77.2459 122.538 72.7161C117.999 72.683 113.458 72.712 108.917 72.7016C108.917 77.2355 108.921 81.7674 108.915 86.3013C113.458 86.3964 118.006 86.3033 122.551 86.353C122.507 90.8559 122.538 95.3629 122.536 99.8678C117.995 99.9071 113.456 99.8761 108.917 99.8844C108.93 95.3691 108.899 90.8559 108.932 86.3426C104.636 86.3323 100.341 86.3716 96.0453 86.322C95.7957 86.3344 95.546 86.3468 95.2984 86.3612C95.3149 90.8641 95.2964 95.367 95.3067 99.8699C90.7677 99.9051 86.2267 99.8782 81.6878 99.8844C81.7022 90.8228 81.6692 81.7612 81.7043 72.7016C77.1612 72.7016 72.6181 72.7016 68.0751 72.7016C68.0854 77.2087 68.0565 81.7136 68.0895 86.2206C67.65 86.293 67.2065 86.355 66.7608 86.3447C62.6593 86.3116 58.5577 86.3778 54.4561 86.3137C54.4726 81.7818 54.452 77.25 54.4665 72.7161C45.3865 72.6603 36.3045 72.7554 27.2266 72.6686C27.241 68.1326 27.2286 63.5966 27.2328 59.0607Z" fill="white"/>
<path d="M136.149 59.0587C149.729 59.0587 163.308 59.0608 176.888 59.0587C176.894 63.574 176.886 68.0893 176.892 72.6046C172.396 72.5943 167.901 72.6108 163.405 72.5964C163.339 77.1675 163.395 81.7386 163.376 86.3097C167.342 86.3862 171.307 86.3138 175.275 86.3511C175.854 86.3697 176.434 86.3056 177.004 86.1898C176.968 81.691 177.006 77.1943 176.985 72.6956C181.476 72.7183 185.968 72.6811 190.461 72.7142C190.676 71.7363 190.598 70.7315 190.604 69.7392C190.604 66.179 190.604 62.6189 190.604 59.0587C204.181 59.0608 217.759 59.0587 231.337 59.0608C231.329 63.5616 231.355 68.0625 231.322 72.5653C232.296 72.7762 233.297 72.6935 234.287 72.7018C237.838 72.7039 241.389 72.6977 244.939 72.7039C244.962 68.1617 244.95 63.6195 244.945 59.0774C263.099 59.036 281.253 59.0712 299.407 59.0608C299.4 63.5658 299.419 68.0749 299.396 72.5819C301.34 72.8382 303.308 72.6398 305.264 72.7018C307.816 72.6811 310.372 72.7431 312.924 72.6749C313.052 72.4082 313.005 72.096 313.03 71.8107C313.007 67.5663 313.036 63.3218 313.015 59.0774C322.093 59.036 331.171 59.0712 340.251 59.0608C340.251 63.5988 340.243 68.1348 340.255 72.6729C335.714 72.7493 331.171 72.6646 326.63 72.7163C326.636 77.2192 326.644 81.722 326.626 86.2249C327.606 86.4172 328.609 86.2952 329.603 86.3304C330.641 86.3593 331.679 86.3614 332.716 86.2746C335.215 86.3676 337.724 86.3614 340.224 86.2994C340.274 81.7717 340.255 77.2398 340.232 72.7101C344.773 72.6584 349.321 72.7742 353.864 72.6501C353.862 68.1245 353.87 63.5988 353.86 59.0732C367.474 59.0443 381.091 59.067 394.706 59.0608C394.71 63.5968 394.694 68.1327 394.716 72.6708C385.632 72.7555 376.548 72.6563 367.466 72.7204C367.493 76.0676 367.47 79.4148 367.479 82.764C367.532 83.9321 367.361 85.1333 367.565 86.2828C369.203 86.4234 370.872 86.2746 372.523 86.3366C375.38 86.3697 378.236 86.3076 381.093 86.3511C381.077 90.8974 381.118 95.4437 381.073 99.99C376.546 99.9817 372.02 99.9879 367.495 99.9858C367.456 96.5249 367.489 93.064 367.479 89.6031C367.415 88.5611 367.604 87.484 367.375 86.4668C366.987 86.2663 366.55 86.3593 366.142 86.3428C357.507 86.3449 348.873 86.3449 340.239 86.3428C340.265 90.856 340.239 95.3692 340.253 99.8825C331.175 99.8845 322.097 99.899 313.019 99.8742C313.026 95.3651 313.019 90.8539 313.023 86.3449C306.657 86.3428 300.29 86.3366 293.923 86.3428C291.208 86.289 288.484 86.4689 285.775 86.2187C285.817 81.7138 285.782 77.2068 285.794 72.7018C281.253 72.7163 276.712 72.6729 272.171 72.7245C272.194 77.2419 272.163 81.7572 272.185 86.2746C268.43 86.4317 264.663 86.289 260.904 86.3345C260.118 86.3614 259.328 86.3635 258.554 86.2146C258.579 81.7117 258.558 77.2068 258.564 72.7018C254.025 72.708 249.486 72.6894 244.947 72.7121C244.956 81.7696 244.947 90.825 244.952 99.8825C243.047 99.9011 241.143 100.056 239.239 99.9135C237.861 99.8969 236.48 100.06 235.106 99.9341C233.846 99.775 232.575 100.17 231.329 99.8411C231.351 95.3465 231.329 90.8519 231.339 86.3573C229.505 86.227 227.671 86.3841 225.834 86.3428C223.125 86.3614 220.416 86.3056 217.71 86.3738C217.741 90.8767 217.712 95.3796 217.724 99.8845C213.218 99.8887 208.714 99.8845 204.208 99.8845C204.204 95.3692 204.212 90.856 204.206 86.3407C208.706 86.3511 213.208 86.3345 217.71 86.349C217.741 81.8006 217.714 77.2502 217.722 72.7018C213.183 72.7163 208.642 72.6729 204.103 72.7245C204.118 77.2316 204.099 81.7386 204.113 86.2477C195.077 86.2291 186.04 86.2642 177.004 86.2291C176.979 90.7692 176.985 95.3093 177.001 99.8494C176.496 99.93 175.988 99.992 175.479 99.9755C173.348 99.9445 171.216 100.044 169.087 99.9528C168.128 99.8225 167.17 100.054 166.213 99.9652C165.27 99.8659 164.321 99.8763 163.376 99.8866C163.389 95.3754 163.35 90.8663 163.397 86.3552C160.892 86.32 158.388 86.3614 155.885 86.3283C153.842 86.3097 151.79 86.4544 149.755 86.2291C149.774 81.7303 149.745 77.2316 149.77 72.7328C145.241 72.6687 140.708 72.708 136.178 72.7121C136.108 68.1617 136.167 63.6092 136.149 59.0587Z" fill="white"/>
<path d="M408.314 59.0705C417.39 59.0581 426.466 59.0499 435.544 59.0747C435.53 63.6044 435.54 68.1363 435.538 72.6681C440.079 72.7467 444.62 72.6867 449.163 72.697C449.149 77.2475 449.136 81.7979 449.167 86.3484C450.925 86.4124 452.677 86.1788 454.43 86.3442C456.355 86.2202 458.282 86.4021 460.213 86.3463C461.053 86.4 461.924 86.2119 462.751 86.4166C462.796 90.9029 462.739 95.3934 462.78 99.8818C461.177 100.105 459.551 99.9356 457.942 99.9873C455.018 99.9893 452.095 99.9811 449.173 99.9914C449.126 95.4451 449.163 90.8967 449.153 86.3484C440.079 86.3422 431.003 86.3442 421.927 86.3484C421.923 81.8041 421.915 77.262 421.931 72.7177C417.394 72.6867 412.855 72.7094 408.319 72.7053C408.317 68.159 408.327 63.6148 408.314 59.0705Z" fill="white"/>
<path d="M449.151 59.0605C453.692 59.0688 458.233 59.0378 462.774 59.0771C462.763 63.582 462.755 68.087 462.778 72.5919C461.309 72.8152 459.819 72.654 458.342 72.7015C456.145 72.6932 453.95 72.718 451.754 72.687C450.882 72.7077 450.011 72.716 449.145 72.6684C449.161 68.1325 449.149 63.5965 449.151 59.0605Z" fill="white"/>
<path d="M394.701 72.6875C399.237 72.7185 403.774 72.6999 408.311 72.6978C408.328 76.1959 408.313 79.6961 408.319 83.1963C408.278 84.2259 408.404 85.2679 408.241 86.2913L408.15 86.3719C403.84 86.3057 399.522 86.3636 395.212 86.343C394.969 86.3657 394.573 86.2375 394.707 85.9026C394.696 81.4989 394.711 77.0932 394.701 72.6875Z" fill="white"/>
<path d="M0 86.3379C4.54514 86.3482 9.08822 86.342 13.6334 86.3379C13.6107 90.8428 13.6127 95.3499 13.6334 99.8548C12.3707 100.06 11.0874 100.012 9.81858 99.9086C7.88952 99.8693 5.95841 99.892 4.03348 99.9499C2.69036 99.7473 1.33899 100.078 0 99.8879C0.0103158 95.3705 0.0103158 90.8532 0 86.3379Z" fill="white"/>
<path d="M40.8457 86.346C43.1585 86.3191 45.4734 86.408 47.78 86.2695C50.0103 86.4225 52.2467 86.3047 54.4791 86.3522C54.4419 90.8593 54.4708 95.3683 54.4626 99.8774C49.9236 99.8981 45.3847 99.8857 40.8457 99.8836C40.8519 95.3704 40.8478 90.8593 40.8457 86.346Z" fill="white"/>
<path d="M272.154 86.3404C276.704 86.3425 281.253 86.3301 285.802 86.3466C285.784 90.8537 285.792 95.3648 285.798 99.8739C283.145 100.151 280.479 99.8512 277.82 99.8967C275.936 99.7974 274.05 100.043 272.171 99.847C272.173 95.3441 272.204 90.8413 272.154 86.3404Z" fill="white"/>
<path d="M408.367 86.4636C408.423 86.4264 408.534 86.3499 408.59 86.3127C411.212 86.352 413.84 86.4037 416.461 86.2383C418.276 86.3603 420.096 86.3458 421.916 86.3437C421.936 90.8466 421.905 95.3516 421.932 99.8545C420.661 100.032 419.382 99.809 418.113 99.9702C415.642 99.8317 413.16 100.107 410.686 99.9475C409.894 99.8793 409.101 99.9062 408.313 99.8917C408.357 95.4177 408.251 90.9293 408.367 86.4636Z" fill="white"/>
<path d="M4.27231 17.9195C4.79429 17.7293 5.35134 17.7127 5.90014 17.7231C20.8354 17.7499 35.7706 17.69 50.7037 17.752C51.1555 18.1552 51.5888 18.579 52.02 19.0069C52.0159 21.0351 52.051 23.0633 51.9994 25.0894C51.5269 25.5111 51.0483 25.9349 50.483 26.2306C49.6577 26.0838 48.8201 26.0507 47.9865 26.09C44.4173 26.0755 40.8439 26.0507 37.2787 26.1293C36.1729 26.0445 35.0608 26.0735 33.955 26.152C32.1023 26.0631 30.2392 26.0238 28.3845 26.1479C25.5703 25.9908 22.7479 26.1251 19.9317 26.0879C18.3946 26.1107 16.8431 25.9577 15.3205 26.2182C14.8481 26.6007 14.3921 27.0121 14.0207 27.5C14.029 28.0293 14.029 28.5585 14.029 29.0899C14.5097 29.7576 15.0585 30.6694 16.0158 30.5577C27.225 30.5495 38.4341 30.5598 49.6433 30.5515C50.2766 30.5081 50.8151 30.8885 51.4052 31.0498C51.6631 31.362 52.0737 31.6411 52.0138 32.1021C52.0365 33.907 52.0262 35.7139 52.02 37.5188C52.0613 37.9426 51.7518 38.259 51.5558 38.6001C51.267 38.813 50.9802 39.0281 50.6955 39.2472C50.6212 39.2617 50.4747 39.2865 50.4004 39.2989C50.0043 39.3588 49.6082 39.4147 49.2079 39.4147C38.4836 39.4064 27.7593 39.4147 17.035 39.4105C16.3418 39.4064 15.6506 39.4105 14.9595 39.4415C14.8151 39.6173 14.6727 39.793 14.5262 39.9667C14.3694 40.2334 14.2126 40.5021 14.0517 40.7668C13.9795 44.0892 14.0703 47.4157 14.0063 50.7381C13.6803 51.6291 12.9582 52.698 11.8874 52.6504C8.37387 52.6484 4.86238 52.6401 1.34881 52.6525C0.886667 52.3238 0.478162 51.9289 0.0820349 51.5257C-0.0396915 50.5727 0.0118877 49.6134 0.00569824 48.6561C0.00363508 40.1135 0.00776096 31.5708 0.00363464 23.0281C-0.0273128 22.3293 0.308983 21.7008 0.50292 21.0496C0.775257 20.6423 1.0414 20.2309 1.29724 19.8132C1.73669 19.4473 2.18233 19.0896 2.63829 18.7444C3.16852 18.4425 3.71732 18.1738 4.27231 17.9195Z" fill="white"/>
<path d="M58.4224 17.7372C63.504 17.7145 68.5856 17.729 73.6671 17.731C73.6651 29.3418 73.6609 40.9526 73.6692 52.5633C72.815 52.6956 71.9506 52.6398 71.0923 52.646C67.096 52.6481 63.0996 52.6419 59.1033 52.6502C58.833 52.6688 58.3213 52.6171 58.4286 52.2098C58.4204 40.7189 58.4307 29.2281 58.4224 17.7372Z" fill="white"/>
<path d="M81.7097 17.7541C85.8009 17.721 89.8984 17.688 93.9896 17.7707C94.3507 18.0746 94.7241 18.3661 95.1058 18.6452C95.2028 18.8974 95.2977 19.1517 95.3926 19.4101L95.5164 19.3998C95.8196 20.7292 95.6855 22.0957 95.7103 23.4458C95.7247 29.3235 95.6835 35.2013 95.7309 41.079C95.9269 41.323 96.1167 41.571 96.3065 41.8212C96.5521 42.0507 96.8038 42.274 97.0575 42.4993C97.334 42.6461 97.6084 42.7991 97.8828 42.9583C108.626 43.0017 119.369 42.9583 130.113 42.979C130.373 42.9852 130.638 43.0017 130.902 43.0183C131.126 43.1754 131.358 43.3304 131.589 43.4814C131.96 44.0602 132.54 44.6081 132.492 45.3503C132.488 47.3144 132.503 49.2764 132.478 51.2384C132.096 51.6271 131.706 52.0054 131.327 52.3941C130.93 52.5388 130.518 52.6753 130.091 52.6525C115.327 52.6319 100.563 52.667 85.7989 52.6339C85.6235 52.5574 85.4502 52.483 85.2769 52.4106C85.0314 52.3342 84.7838 52.2639 84.5383 52.1956C83.7006 51.8132 82.8857 51.3728 82.1718 50.7877C81.0495 49.6837 79.9766 48.253 80.0592 46.597C80.0736 39.4995 80.0612 32.404 80.0653 25.3085C80.088 23.4644 80.0179 21.6202 80.1066 19.7802C80.3604 19.4577 80.5048 19.0773 80.5543 18.6721C80.8968 18.3537 81.2847 18.089 81.7159 17.903L81.7097 17.7541Z" fill="white"/>
<path d="M102.14 17.7612C114.074 17.6847 126.009 17.7509 137.942 17.7282C142.898 17.7509 147.854 17.6827 152.807 17.7633C153.146 17.9432 153.501 18.0858 153.868 18.2057C154.53 18.4952 155.003 19.041 155.355 19.6592C155.339 30.0956 155.349 40.53 155.351 50.9644C155.135 51.5743 154.825 52.149 154.274 52.517C151.784 52.5832 149.29 52.5315 146.797 52.548C145.972 52.5315 145.13 52.6307 144.324 52.4074C143.831 52.0746 143.418 51.6446 143.115 51.1318C143.016 50.799 142.943 50.4558 142.952 50.1085C142.954 42.6636 142.958 35.2187 142.95 27.7759C142.978 27.1495 142.508 26.7071 142.11 26.2998C141.485 26.1881 140.851 26.1592 140.22 26.1737C135.722 26.2067 131.225 26.1261 126.729 26.215C127.449 27.0813 128.311 27.8069 129.116 28.5864C129.244 28.7352 129.372 28.8841 129.504 29.0329C129.698 29.1673 129.892 29.3038 130.09 29.4382C130.919 30.3354 131.842 31.1397 132.685 32.0225C132.968 32.3367 133.331 32.5559 133.696 32.7667C133.746 33.2857 133.735 34.1333 133.013 34.1106C127.988 34.1126 122.96 34.1561 117.936 34.0878C116.294 32.4587 114.536 30.9412 112.792 29.4196C110.754 27.5278 108.672 25.6858 106.609 23.8251C106.038 23.333 105.528 22.7624 104.874 22.3778C104.864 22.3324 104.847 22.2435 104.839 22.198C103.708 21.1994 102.441 20.2566 101.744 18.8797C101.748 18.6482 101.752 18.4166 101.759 18.1871C101.858 18.1871 102.056 18.1851 102.155 18.1851C102.151 18.0796 102.142 17.8667 102.14 17.7612Z" fill="white"/>
<path d="M165.801 17.9328C166.127 17.7964 166.471 17.7137 166.83 17.7261C181.543 17.7302 196.257 17.7281 210.97 17.7281C211.974 17.6682 212.789 18.3835 213.324 19.165C213.375 21.1477 213.355 23.1324 213.336 25.1172C212.991 25.572 212.657 26.0599 212.131 26.3163L212.106 26.4238C211.11 26.5602 210.107 26.6243 209.104 26.5851C198.273 26.6016 187.441 26.5478 176.612 26.6119L176.585 26.7422C176.3 26.982 176.032 27.2363 175.772 27.4968C175.768 28.2452 175.766 28.9936 175.801 29.742C175.898 29.7462 176.094 29.7544 176.191 29.7586C176.187 29.8392 176.181 30.0005 176.176 30.0811C176.416 30.2341 176.657 30.3912 176.899 30.5504C186.195 30.5628 195.49 30.5545 204.786 30.5566C207.101 30.5856 209.42 30.4925 211.733 30.6062C212.362 30.9143 212.936 31.3195 213.328 31.917C213.365 33.6392 213.367 35.3634 213.328 37.0856C213.169 37.2696 213.014 37.4557 212.864 37.6438C212.661 37.894 212.457 38.1462 212.259 38.3964C212.03 38.4584 211.807 38.5225 211.584 38.5886C199.944 38.63 188.302 38.5576 176.661 38.6238C176.368 38.9091 176.079 39.1965 175.795 39.4859C175.782 40.3459 175.621 41.268 176.073 42.0516C176.335 42.2149 176.597 42.3824 176.857 42.554C188.475 42.6015 200.093 42.5395 211.71 42.5829C211.712 42.6573 211.714 42.8041 211.716 42.8765C212.154 42.9592 212.533 43.1907 212.886 43.4574C213.06 43.7882 213.367 44.088 213.346 44.4891C213.355 46.7509 213.361 49.0127 213.338 51.2765C213.272 51.2786 213.14 51.2827 213.076 51.2869C212.899 51.6445 212.647 51.9546 212.358 52.2275C212.005 52.3247 211.663 52.457 211.32 52.5811C211.446 52.608 211.698 52.6638 211.826 52.6927C204.871 52.5893 197.912 52.6762 190.955 52.6472C182.713 52.6452 174.472 52.6534 166.23 52.6431C166.092 52.5232 165.956 52.4053 165.821 52.2875C165.677 52.273 165.384 52.2461 165.238 52.2317C165.097 52.1304 164.959 52.0311 164.823 51.9319C163.48 51.384 162.51 50.2159 161.842 48.963C161.743 48.6467 161.637 48.3304 161.528 48.0203C161.388 47.6316 161.326 47.2202 161.34 46.8088C161.344 39.1572 161.344 31.5076 161.34 23.856C161.324 23.4405 161.394 23.0311 161.542 22.6424C161.65 22.3179 161.749 21.9891 161.837 21.6583C162.496 20.1553 163.701 18.9686 165.147 18.2202C165.363 18.1271 165.58 18.03 165.801 17.9328Z" fill="white"/>
<path d="M222.641 18.2315C223.351 18.0413 224.036 17.6774 224.795 17.7249C239.999 17.7477 255.202 17.6898 270.406 17.7539C270.961 18.2253 271.557 18.645 272.145 19.0771C272.194 21.2127 272.203 23.3505 272.143 25.4841C271.852 25.788 271.573 26.1002 271.297 26.4103C271.07 26.5591 270.849 26.7121 270.633 26.8672C259.683 26.923 248.734 26.8754 237.787 26.8899C237.414 26.8713 237.073 27.0264 236.739 27.1566C235.897 27.506 235.291 28.1965 234.87 28.9842C234.474 29.6127 234.597 30.3756 234.583 31.0786C234.612 34.1797 234.536 37.2809 234.622 40.38C234.855 40.6446 235.006 40.963 235.115 41.2979C235.19 41.3041 235.336 41.3124 235.408 41.3186C235.414 41.393 235.425 41.546 235.431 41.6204C235.608 41.7838 235.786 41.9512 235.963 42.1208C236.066 42.1332 236.273 42.158 236.378 42.1704C236.5 42.3006 236.623 42.4309 236.751 42.5632C242.77 42.5694 248.788 42.5777 254.806 42.5591C254.876 42.4764 255.019 42.3089 255.089 42.2241C255.46 42.0319 255.827 41.8334 256.205 41.6453C256.228 41.5481 256.271 41.3537 256.294 41.2545C256.413 40.9775 256.523 40.6942 256.642 40.4151C256.615 38.3394 256.644 36.2637 256.626 34.1901C256.613 33.7021 256.646 33.2122 256.781 32.7429C257.041 32.3025 257.303 31.8621 257.577 31.428C257.798 31.4031 258.023 31.3783 258.254 31.3535C258.295 31.2667 258.379 31.091 258.423 31.0041C260.894 30.9132 263.37 30.9835 265.844 30.9628C267.348 30.9855 268.856 30.9049 270.36 31.0145C270.719 31.6636 271.208 32.2281 271.734 32.7491C271.819 36.3299 271.747 39.9148 271.771 43.4956C271.726 44.9987 271.86 46.5141 271.705 48.0068C270.963 49.6525 269.747 51.1348 268.122 51.9597C267.4 52.2802 266.675 52.7081 265.856 52.6523C252.328 52.6275 238.798 52.6751 225.27 52.6275C225.072 52.5634 224.874 52.5035 224.68 52.4456L224.688 52.3133C224.393 52.2636 224.102 52.2099 223.815 52.1541C223.667 52.0734 223.52 51.9949 223.378 51.9142C223.089 51.7985 222.806 51.6786 222.524 51.5586C221.309 50.8661 220.465 49.6132 220.174 48.2611C220.137 39.7101 220.176 31.1571 220.155 22.6041C220.133 21.8288 220.487 21.1197 220.663 20.3795C220.846 20.0818 220.97 19.7531 221.08 19.4202C221.154 19.4202 221.307 19.4202 221.383 19.4223C221.391 19.3334 221.408 19.1598 221.416 19.0729C221.814 18.8021 222.223 18.5416 222.654 18.3204L222.641 18.2315Z" fill="white"/>
<path d="M281.14 17.9398C281.453 17.7909 281.794 17.7082 282.149 17.7247C294.189 17.7309 306.228 17.7247 318.266 17.7268C320.472 17.7454 322.682 17.6896 324.887 17.7578C325.238 17.9522 325.603 18.1052 325.987 18.2375V18.3532C326.263 18.438 326.538 18.5269 326.822 18.6096L326.824 18.6985C327.082 18.866 327.338 19.0417 327.596 19.2216C327.8 19.4325 328.011 19.6433 328.225 19.8542C328.337 20.092 328.458 20.3318 328.576 20.5716C328.768 21.2477 329.106 21.903 329.075 22.6225C329.065 31.1652 329.073 39.7079 329.071 48.2505C329.057 49.2532 329.164 50.2766 328.875 51.2525L328.78 51.2752C328.477 51.8624 327.885 52.1828 327.346 52.5136C323.759 52.5736 320.169 52.557 316.583 52.5219C315.824 52.0112 315.062 51.2773 315.052 50.2994C315.046 47.7233 315.054 45.1473 315.052 42.5713C307.837 42.5671 300.624 42.5651 293.409 42.5713C293.399 45.3024 293.432 48.0334 293.393 50.7625C292.883 51.4096 292.363 52.0608 291.676 52.5281C287.604 52.5467 283.531 52.5818 279.46 52.5074C279.106 52.1993 278.757 51.8851 278.433 51.5481C278.276 51.3269 278.117 51.1077 277.946 50.9031C277.849 50.5082 277.752 50.1092 277.762 49.6998C277.771 40.6734 277.762 31.6469 277.767 22.6184C277.806 20.8424 278.747 19.0665 280.397 18.3057L280.407 18.2333C280.649 18.1382 280.894 18.0411 281.14 17.9398ZM294.513 27.665C294.468 27.6815 294.379 27.7146 294.336 27.7332C294.132 28.0888 293.923 28.4403 293.725 28.798C293.647 28.8889 293.49 29.0709 293.412 29.1639C293.409 30.5408 293.409 31.9198 293.409 33.2988C300.352 33.3112 307.295 33.3009 314.239 33.3029C314.229 32.0046 314.258 30.7062 314.216 29.4079C314.041 29.0833 313.878 28.7504 313.73 28.4155C313.587 28.2067 313.445 27.9979 313.311 27.7911C313.086 27.6485 312.873 27.5058 312.659 27.3632C312.333 27.2681 312.019 27.1668 311.706 27.0592C310.814 26.8008 309.884 26.9042 308.974 26.8897C304.705 26.8856 300.437 26.9001 296.17 26.8835C295.578 27.051 294.984 27.2577 294.513 27.665Z" fill="white"/>
<path d="M353.314 18.046C353.685 17.7959 354.119 17.6966 354.57 17.7256C366.537 17.7297 378.501 17.7256 390.467 17.7276C393.083 17.7483 395.704 17.6863 398.322 17.7607C398.994 18.0832 399.698 18.3396 400.389 18.6332C400.979 18.9991 401.567 19.3795 402.079 19.8633C402.207 20.006 402.343 20.1486 402.485 20.2892C403.195 20.8722 403.593 21.7736 403.634 22.6854L403.75 22.673C403.799 22.9376 403.861 23.2022 403.934 23.4648C403.971 29.7953 403.938 36.1258 403.95 42.4563C403.913 44.1454 404.078 45.8531 403.733 47.5216L403.577 47.5112C403.544 47.7531 403.517 47.9929 403.494 48.2348C403.265 48.6028 403.053 48.9791 402.815 49.3409C402.784 49.4525 402.72 49.68 402.689 49.7937C402.628 49.7999 402.506 49.8143 402.444 49.8206C402.244 50.2237 401.928 50.5318 401.542 50.7468C401.526 50.7881 401.495 50.8749 401.478 50.9184C401.231 51.0734 400.989 51.2305 400.756 51.3918C400.632 51.4187 400.387 51.4683 400.265 51.4931C400.263 51.5758 400.261 51.7412 400.261 51.8239C399.985 51.8363 399.714 51.8487 399.45 51.8611L399.454 52.0555C398.4 52.3408 397.338 52.6654 396.236 52.6509C392.867 52.6405 389.498 52.6592 386.128 52.6385C379.528 52.6488 372.928 52.6592 366.33 52.6343C363.097 52.6633 359.867 52.6385 356.636 52.6467C355.033 52.5847 353.409 52.7935 351.822 52.5041C351.843 46.7442 351.824 40.9843 351.831 35.2223C351.843 34.1101 351.756 32.9854 351.967 31.8855C352.437 31.35 353.044 30.9717 353.636 30.5851C357.525 30.5499 361.418 30.5086 365.305 30.6057C365.491 30.7918 365.709 30.9386 365.943 31.0709C366.174 31.3149 366.401 31.5671 366.632 31.8173C366.708 34.8791 366.636 37.9431 366.669 41.007C366.801 41.404 366.929 41.803 367.075 42.2C367.166 42.1938 367.345 42.1772 367.436 42.1689C367.442 42.2413 367.455 42.386 367.461 42.4563C367.7 42.6197 367.94 42.7871 368.181 42.9587C374.439 42.9939 380.698 42.9732 386.958 42.969C387.063 42.8326 387.177 42.6961 387.294 42.5618C387.437 42.5535 387.723 42.5328 387.866 42.5245C387.864 42.4274 387.859 42.233 387.855 42.1379C387.956 42.1379 388.157 42.1379 388.256 42.1379C388.278 42.0201 388.32 41.7823 388.342 41.6645C388.538 41.4247 388.749 41.1683 388.705 40.8313C388.722 37.4448 388.699 34.0604 388.714 30.674C388.687 30.186 388.792 29.6237 388.417 29.2412C388.272 29.0159 388.146 28.7905 388.016 28.5631C387.833 28.377 387.651 28.191 387.476 28.007C387.461 27.9594 387.434 27.8643 387.422 27.8168C386.987 27.6204 386.566 27.4033 386.161 27.1593C385.906 27.0043 385.625 26.8616 385.322 26.8905C374.191 26.8905 363.06 26.8926 351.932 26.8905C351.925 24.6308 351.94 22.3711 351.923 20.1093C352.443 19.7682 352.485 19.0984 352.627 18.5505C352.47 18.7841 352.328 19.0239 352.171 19.2534C352.165 19.1294 352.152 18.8813 352.146 18.7572C352.518 18.4967 352.932 18.3003 353.314 18.046Z" fill="white"/>
<path d="M414.812 17.9103C415.14 17.7821 415.485 17.7139 415.848 17.7242C430.567 17.7304 445.285 17.7242 460.002 17.7263C460.551 17.687 461.031 17.9744 461.51 18.2018C461.698 18.423 461.894 18.6422 462.098 18.8572C462.28 19.1838 462.385 19.5436 462.362 19.924C462.35 21.6441 462.374 23.3683 462.344 25.0885C461.966 25.5826 461.564 26.056 461.079 26.4406C457.902 26.5336 454.724 26.4592 451.547 26.484C443.076 26.4757 434.602 26.4984 426.131 26.4716C425.836 26.606 425.549 26.7465 425.266 26.8913C425.103 27.1021 424.945 27.313 424.79 27.5218C424.755 28.2599 424.761 28.998 424.804 29.734L425.058 29.7278C425.06 29.8084 425.062 29.9718 425.062 30.0524C425.351 30.2116 425.646 30.379 425.937 30.5486C437.293 30.561 448.648 30.5506 460.004 30.5527C460.596 30.5279 461.116 30.8545 461.654 31.0613C461.867 31.3735 462.092 31.6857 462.335 31.9813C462.37 33.6745 462.377 35.3698 462.331 37.0631C462.154 37.2636 461.982 37.4683 461.819 37.673C461.679 37.9025 461.547 38.1361 461.423 38.3697C460.885 38.4689 460.348 38.6033 459.804 38.5992C453.334 38.593 446.866 38.5992 440.396 38.5971C435.452 38.624 430.507 38.5413 425.566 38.6385C425.242 39.0065 424.932 39.3827 424.66 39.7859C424.666 40.4227 424.666 41.0594 424.676 41.6962C424.736 41.7086 424.858 41.7293 424.92 41.7417C425.209 42.1407 425.588 42.6121 426.145 42.5604C437.018 42.5769 447.893 42.5666 458.766 42.5666C459.463 42.5976 460.231 42.4322 460.868 42.8126C461.607 43.162 462.428 43.8174 462.362 44.7271C462.348 46.8586 462.379 48.9922 462.339 51.1238C461.741 52.0582 460.712 52.6888 459.587 52.6495C454.77 52.6371 449.954 52.6578 445.141 52.6392C444.175 52.6495 443.214 52.6516 442.255 52.633C433.73 52.6681 425.207 52.6289 416.682 52.6516C415.658 52.7364 414.682 52.3994 413.777 51.9693C412.805 51.4856 412.033 50.7144 411.342 49.8957C411.206 49.6745 411.08 49.4533 410.956 49.232C410.8 48.8392 410.661 48.4423 410.513 48.0495C410.278 47.3135 410.358 46.532 410.348 45.7732C410.35 38.8121 410.35 31.8511 410.348 24.89C410.356 24.1292 410.274 23.3456 410.538 22.6137C410.961 20.6703 412.399 19.097 414.14 18.2121C414.363 18.115 414.579 18.0116 414.812 17.9103Z" fill="white"/>
<path d="M338.847 38.4069L338.781 38.2539C340.046 38.2395 341.356 38.0203 342.59 38.3986C342.935 38.5227 343.285 38.6426 343.634 38.7729C344.057 39.0189 344.482 39.2711 344.915 39.5068C345.528 40.003 346.083 40.5653 346.578 41.1814C346.758 41.5432 346.947 41.9009 347.133 42.2648C347.218 42.3847 347.306 42.5046 347.399 42.6245C347.438 43.0421 347.544 43.4556 347.797 43.7988C347.896 44.8387 347.894 45.889 347.804 46.931C347.558 47.2721 347.43 47.6691 347.391 48.0867C347.246 48.3492 347.104 48.6118 346.97 48.8785C346.483 49.7903 345.751 50.5242 344.987 51.2065C344.804 51.3119 344.624 51.4173 344.449 51.5248C344.15 51.6902 343.836 51.8329 343.529 51.9652C343.525 52.0293 343.516 52.1595 343.51 52.2257C343.168 52.2381 342.825 52.2526 342.491 52.265L342.497 52.4759C342.404 52.48 342.217 52.4903 342.124 52.4965C340.616 52.8666 339.054 52.5751 337.653 51.9673C337.393 51.8122 337.137 51.6592 336.885 51.5042C336.561 51.314 336.242 51.1196 335.922 50.9336C335.916 50.8529 335.903 50.6896 335.895 50.609C335.796 50.609 335.596 50.611 335.495 50.6131C335.495 50.5097 335.493 50.303 335.493 50.1996C335.416 50.1955 335.264 50.1913 335.187 50.1872C335.037 49.9536 334.884 49.72 334.74 49.4884C334.535 49.1514 334.329 48.8144 334.129 48.4795C333.861 47.7993 333.584 47.115 333.469 46.3914C333.397 45.5603 333.456 44.723 333.467 43.8898C333.568 43.7678 333.673 43.6458 333.782 43.5238C333.778 42.7982 334.174 42.1883 334.54 41.5949C334.731 41.291 334.929 40.9892 335.128 40.6852C335.198 40.6232 335.336 40.4992 335.406 40.4371C336.041 39.7321 336.848 39.2298 337.671 38.777C338.055 38.6343 338.447 38.5206 338.847 38.4069Z" fill="white"/>
</svg>
