<svg width="463" height="35" viewBox="0 0 463 35" fill="none" xmlns="http://www.w3.org/2000/svg">
<path d="M4.27231 0.20072C4.79429 0.0105149 5.35134 -0.00602558 5.90014 0.00431163C20.8354 0.0311884 35.7706 -0.028766 50.7037 0.0332573C51.1555 0.436409 51.5888 0.860234 52.02 1.28819C52.0159 3.31636 52.051 5.34452 51.9994 7.37061C51.5269 7.79237 51.0483 8.21619 50.483 8.51184C49.6577 8.36505 48.8201 8.33197 47.9865 8.37125C44.4173 8.35678 40.8439 8.33197 37.2787 8.41053C36.1729 8.32577 35.0608 8.35471 33.955 8.43328C32.1023 8.34438 30.2392 8.30509 28.3845 8.42914C25.5703 8.27201 22.7479 8.4064 19.9317 8.36919C18.3946 8.39193 16.8431 8.23893 15.3205 8.49943C14.8481 8.88191 14.3921 9.29333 14.0207 9.78125C14.029 10.3105 14.029 10.8398 14.029 11.3711C14.5097 12.0389 15.0585 12.9506 16.0158 12.839C27.225 12.8307 38.4341 12.8411 49.6433 12.8328C50.2766 12.7894 50.8151 13.1698 51.4052 13.331C51.6631 13.6432 52.0737 13.9223 52.0138 14.3834C52.0365 16.1883 52.0262 17.9952 52.02 19.8001C52.0613 20.2239 51.7518 20.5402 51.5558 20.8813C51.267 21.0943 50.9802 21.3093 50.6955 21.5285C50.6212 21.5429 50.4747 21.5677 50.4004 21.5801C50.0043 21.6401 49.6082 21.6959 49.2079 21.6959C38.4836 21.6876 27.7593 21.6959 17.035 21.6918C16.3418 21.6877 15.6506 21.6918 14.9595 21.7228C14.8151 21.8985 14.6727 22.0743 14.5262 22.2479C14.3694 22.5146 14.2126 22.7834 14.0517 23.048C13.9795 26.3704 14.0703 29.6969 14.0063 33.0193C13.6803 33.9104 12.9582 34.9792 11.8874 34.9317C8.37387 34.9296 4.86238 34.9214 1.34881 34.9338C0.886667 34.605 0.478162 34.2101 0.0820349 33.807C-0.0396915 32.8539 0.0118877 31.8946 0.00569824 30.9374C0.00363508 22.3947 0.00776096 13.852 0.00363464 5.30937C-0.0273128 4.61057 0.308983 3.98207 0.50292 3.33083C0.775257 2.92354 1.0414 2.51212 1.29724 2.0945C1.73669 1.72856 2.18233 1.37089 2.63829 1.02563C3.16852 0.723782 3.71732 0.455015 4.27231 0.20072Z" fill="white"/>
<path d="M58.4224 0.0184997C63.504 -0.00424216 68.5856 0.0102286 73.6671 0.0122961C73.6651 11.6231 73.6609 23.2338 73.6692 34.8446C72.815 34.9769 71.9506 34.9211 71.0923 34.9273C67.096 34.9293 63.0996 34.9231 59.1033 34.9314C58.833 34.95 58.3213 34.8983 58.4286 34.491C58.4204 23.0002 58.4307 11.5093 58.4224 0.0184997Z" fill="white"/>
<path d="M81.7097 0.0353628C85.8009 0.00228374 89.8984 -0.030795 93.9896 0.0519027C94.3507 0.355817 94.7241 0.647327 95.1058 0.926432C95.2028 1.17866 95.2977 1.43295 95.3926 1.69138L95.5164 1.68105C95.8196 3.01041 95.6855 4.37699 95.7103 5.72703C95.7247 11.6048 95.6835 17.4825 95.7309 23.3602C95.9269 23.6042 96.1167 23.8523 96.3065 24.1025C96.5521 24.3319 96.8038 24.5552 97.0575 24.7806C97.334 24.9274 97.6084 25.0804 97.8828 25.2396C108.626 25.283 119.369 25.2396 130.113 25.2602C130.373 25.2664 130.638 25.283 130.902 25.2995C131.126 25.4566 131.358 25.6117 131.589 25.7626C131.96 26.3415 132.54 26.8894 132.492 27.6316C132.488 29.5957 132.503 31.5577 132.478 33.5197C132.096 33.9083 131.706 34.2867 131.327 34.6754C130.93 34.8201 130.518 34.9565 130.091 34.9338C115.327 34.9131 100.563 34.9483 85.7989 34.9152C85.6235 34.8387 85.4502 34.7643 85.2769 34.6919C85.0314 34.6154 84.7838 34.5451 84.5383 34.4769C83.7006 34.0944 82.8857 33.654 82.1718 33.069C81.0495 31.9649 79.9766 30.5343 80.0592 28.8783C80.0736 21.7807 80.0612 14.6853 80.0653 7.5898C80.088 5.74564 80.0179 3.90148 80.1066 2.06146C80.3604 1.73893 80.5048 1.35852 80.5543 0.953306C80.8968 0.63492 81.2847 0.370289 81.7159 0.184219L81.7097 0.0353628Z" fill="white"/>
<path d="M102.14 0.0424925C114.074 -0.0340029 126.009 0.0321561 137.942 0.00941426C142.898 0.0321561 147.854 -0.0360699 152.807 0.0445604C153.146 0.224428 153.501 0.367081 153.868 0.486993C154.53 0.776435 155.003 1.32224 155.355 1.9404C155.339 12.3769 155.349 22.8112 155.351 33.2456C155.135 33.8555 154.825 34.4303 154.274 34.7983C151.784 34.8644 149.29 34.8127 146.797 34.8293C145.972 34.8127 145.13 34.912 144.324 34.6887C143.831 34.3558 143.418 33.9258 143.115 33.4131C143.016 33.0802 142.943 32.737 142.952 32.3897C142.954 24.9448 142.958 17.5 142.95 10.0572C142.978 9.43075 142.508 8.98832 142.11 8.58103C141.485 8.46939 140.851 8.44045 140.22 8.45492C135.722 8.488 131.225 8.40737 126.729 8.49627C127.449 9.36252 128.311 10.0882 129.116 10.8676C129.244 11.0165 129.372 11.1653 129.504 11.3142C129.698 11.4486 129.892 11.585 130.09 11.7194C130.919 12.6167 131.842 13.4209 132.685 14.3037C132.968 14.618 133.331 14.8371 133.696 15.048C133.746 15.5669 133.735 16.4146 133.013 16.3918C127.988 16.3939 122.96 16.4373 117.936 16.3691C116.294 14.7399 114.536 13.2224 112.792 11.7008C110.754 9.80909 108.672 7.967 106.609 6.1063C106.038 5.61425 105.528 5.04364 104.874 4.65909C104.864 4.61361 104.847 4.52471 104.839 4.47922C103.708 3.48065 102.441 2.53789 101.744 1.16098C101.748 0.929425 101.752 0.697873 101.759 0.468387C101.858 0.468387 102.056 0.466319 102.155 0.466319C102.151 0.360879 102.142 0.147932 102.14 0.0424925Z" fill="white"/>
<path d="M165.801 0.214055C166.127 0.0776041 166.471 -0.0050936 166.83 0.00731105C181.543 0.0114459 196.257 0.00937894 210.97 0.00937894C211.974 -0.0505769 212.789 0.664758 213.324 1.44625C213.375 3.42893 213.355 5.41367 213.336 7.39842C212.991 7.85326 212.657 8.34117 212.131 8.59753L212.106 8.70504C211.11 8.84149 210.107 8.90558 209.104 8.8663C198.273 8.88284 187.441 8.82909 176.612 8.89318L176.585 9.02343C176.3 9.26325 176.032 9.51755 175.772 9.77804C175.768 10.5265 175.766 11.2749 175.801 12.0233C175.898 12.0274 176.094 12.0357 176.191 12.0398C176.187 12.1205 176.181 12.2817 176.176 12.3623C176.416 12.5153 176.657 12.6725 176.899 12.8317C186.195 12.8441 195.49 12.8358 204.786 12.8379C207.101 12.8668 209.42 12.7738 211.733 12.8875C212.362 13.1955 212.936 13.6007 213.328 14.1982C213.365 15.9204 213.367 17.6447 213.328 19.3668C213.169 19.5508 213.014 19.7369 212.864 19.9251C212.661 20.1752 212.457 20.4274 212.259 20.6776C212.03 20.7396 211.807 20.8037 211.584 20.8699C199.944 20.9112 188.302 20.8389 176.661 20.905C176.368 21.1903 176.079 21.4777 175.795 21.7671C175.782 22.6272 175.621 23.5493 176.073 24.3328C176.335 24.4962 176.597 24.6636 176.857 24.8352C188.475 24.8828 200.093 24.8208 211.71 24.8642C211.712 24.9386 211.714 25.0854 211.716 25.1577C212.154 25.2404 212.533 25.472 212.886 25.7387C213.06 26.0695 213.367 26.3693 213.346 26.7704C213.355 29.0321 213.361 31.2939 213.338 33.5578C213.272 33.5598 213.14 33.564 213.076 33.5681C212.899 33.9258 212.647 34.2359 212.358 34.5088C212.005 34.606 211.663 34.7383 211.32 34.8623C211.446 34.8892 211.698 34.945 211.826 34.974C204.871 34.8706 197.912 34.9574 190.955 34.9285C182.713 34.9264 174.472 34.9347 166.23 34.9243C166.092 34.8044 165.956 34.6866 165.821 34.5687C165.677 34.5543 165.384 34.5274 165.238 34.5129C165.097 34.4116 164.959 34.3124 164.823 34.2131C163.48 33.6653 162.51 32.4972 161.842 31.2443C161.743 30.928 161.637 30.6117 161.528 30.3015C161.388 29.9129 161.326 29.5014 161.34 29.09C161.344 21.4384 161.344 13.7889 161.34 6.13728C161.324 5.72172 161.394 5.31237 161.542 4.92369C161.65 4.5991 161.749 4.27038 161.837 3.93959C162.496 2.43656 163.701 1.24984 165.147 0.50143C165.363 0.408395 165.58 0.311225 165.801 0.214055Z" fill="white"/>
<path d="M222.641 0.51272C223.351 0.322515 224.036 -0.0413557 224.795 0.00619552C239.999 0.0289374 255.202 -0.0289511 270.406 0.0351396C270.961 0.506517 271.557 0.926208 272.145 1.3583C272.194 3.49397 272.203 5.63171 272.143 7.76531C271.852 8.06922 271.573 8.38141 271.297 8.69152C271.07 8.84038 270.849 8.99337 270.633 9.14843C259.683 9.20425 248.734 9.1567 237.787 9.17117C237.414 9.15256 237.073 9.30762 236.739 9.43787C235.897 9.78727 235.291 10.4778 234.87 11.2655C234.474 11.894 234.597 12.6569 234.583 13.3598C234.612 16.461 234.536 19.5621 234.622 22.6612C234.855 22.9259 235.006 23.2443 235.115 23.5792C235.19 23.5854 235.336 23.5937 235.408 23.5999C235.414 23.6743 235.425 23.8273 235.431 23.9017C235.608 24.065 235.786 24.2325 235.963 24.402C236.066 24.4144 236.273 24.4392 236.378 24.4516C236.5 24.5819 236.623 24.7121 236.751 24.8445C242.77 24.8507 248.788 24.8589 254.806 24.8403C254.876 24.7576 255.019 24.5902 255.089 24.5054C255.46 24.3131 255.827 24.1146 256.205 23.9265C256.228 23.8293 256.271 23.635 256.294 23.5358C256.413 23.2587 256.523 22.9755 256.642 22.6964C256.615 20.6207 256.644 18.545 256.626 16.4713C256.613 15.9834 256.646 15.4934 256.781 15.0241C257.041 14.5837 257.303 14.1434 257.577 13.7092C257.798 13.6844 258.023 13.6596 258.254 13.6348C258.295 13.5479 258.379 13.3722 258.423 13.2854C260.894 13.1944 263.37 13.2647 265.844 13.244C267.348 13.2668 268.856 13.1861 270.36 13.2957C270.719 13.9449 271.208 14.5093 271.734 15.0303C271.819 18.6111 271.747 22.1961 271.771 25.7769C271.726 27.2799 271.86 28.7953 271.705 30.288C270.963 31.9337 269.747 33.4161 268.122 34.241C267.4 34.5614 266.675 34.9894 265.856 34.9336C252.328 34.9088 238.798 34.9563 225.27 34.9088C225.072 34.8447 224.874 34.7847 224.68 34.7268L224.688 34.5945C224.393 34.5449 224.102 34.4911 223.815 34.4353C223.667 34.3547 223.52 34.2761 223.378 34.1955C223.089 34.0797 222.806 33.9598 222.524 33.8399C221.309 33.1473 220.465 31.8944 220.174 30.5423C220.137 21.9914 220.176 13.4384 220.155 4.88536C220.133 4.11007 220.487 3.40094 220.663 2.66079C220.846 2.36308 220.97 2.03436 221.08 1.7015C221.154 1.7015 221.307 1.7015 221.383 1.70357C221.391 1.61467 221.408 1.441 221.416 1.35417C221.814 1.08333 222.223 0.822835 222.654 0.601618L222.641 0.51272Z" fill="white"/>
<path d="M281.14 0.221007C281.453 0.0721516 281.794 -0.0105463 282.149 0.00599324C294.189 0.0121956 306.228 0.00599368 318.266 0.00806113C320.472 0.0266681 322.682 -0.0291525 324.887 0.0390731C325.238 0.233413 325.603 0.386403 325.987 0.51872V0.634496C326.263 0.719261 326.538 0.808162 326.822 0.89086L326.824 0.979759C327.082 1.14722 327.338 1.32295 327.596 1.50282C327.8 1.7137 328.011 1.92458 328.225 2.13546C328.337 2.37321 328.458 2.61304 328.576 2.85286C328.768 3.52891 329.106 4.18429 329.075 4.90376C329.065 13.4464 329.073 21.9891 329.071 30.5318C329.057 31.5345 329.164 32.5579 328.875 33.5337L328.78 33.5565C328.477 34.1436 327.885 34.4641 327.346 34.7948C323.759 34.8548 320.169 34.8383 316.583 34.8031C315.824 34.2925 315.062 33.5585 315.052 32.5806C315.046 30.0046 315.054 27.4286 315.052 24.8525C307.837 24.8484 300.624 24.8463 293.409 24.8525C293.399 27.5836 293.432 30.3147 293.393 33.0437C292.883 33.6908 292.363 34.3421 291.676 34.8093C287.604 34.8279 283.531 34.8631 279.46 34.7886C279.106 34.4806 278.757 34.1663 278.433 33.8294C278.276 33.6081 278.117 33.389 277.946 33.1843C277.849 32.7894 277.752 32.3904 277.762 31.9811C277.771 22.9546 277.762 13.9282 277.767 4.89963C277.806 3.1237 278.747 1.34776 280.397 0.586946L280.407 0.514584C280.649 0.419482 280.894 0.322312 281.14 0.221007ZM294.513 9.94626C294.468 9.9628 294.379 9.99587 294.336 10.0145C294.132 10.3701 293.923 10.7215 293.725 11.0792C293.647 11.1702 293.49 11.3521 293.412 11.4452C293.409 12.8221 293.409 14.2011 293.409 15.58C300.352 15.5924 307.295 15.5821 314.239 15.5842C314.229 14.2858 314.258 12.9875 314.216 11.6891C314.041 11.3645 313.878 11.0317 313.73 10.6967C313.587 10.4879 313.445 10.2791 313.311 10.0724C313.086 9.92972 312.873 9.78706 312.659 9.64441C312.333 9.54931 312.019 9.448 311.706 9.3405C310.814 9.08207 309.884 9.18544 308.974 9.17096C304.705 9.16683 300.437 9.1813 296.17 9.16476C295.578 9.33223 294.984 9.53897 294.513 9.94626Z" fill="white"/>
<path d="M353.314 0.327277C353.685 0.0771164 354.119 -0.0221215 354.57 0.0068227C366.537 0.0109576 378.501 0.00682314 390.467 0.00889058C393.083 0.029565 395.704 -0.0324591 398.322 0.0419688C398.994 0.36449 399.698 0.620855 400.389 0.914431C400.979 1.28037 401.567 1.66078 402.079 2.14456C402.207 2.28721 402.343 2.42987 402.485 2.57045C403.195 3.15347 403.593 4.05488 403.634 4.96662L403.75 4.95421C403.799 5.21885 403.861 5.48348 403.934 5.74604C403.971 12.0766 403.938 18.4071 403.95 24.7376C403.913 26.4267 404.078 28.1344 403.733 29.8028L403.577 29.7925C403.544 30.0344 403.517 30.2742 403.494 30.5161C403.265 30.8841 403.053 31.2604 402.815 31.6222C402.784 31.7338 402.72 31.9612 402.689 32.0749C402.628 32.0811 402.506 32.0956 402.444 32.1018C402.244 32.505 401.928 32.813 401.542 33.028C401.526 33.0694 401.495 33.1562 401.478 33.1996C401.231 33.3547 400.989 33.5118 400.756 33.6731C400.632 33.6999 400.387 33.7496 400.265 33.7744C400.263 33.8571 400.261 34.0225 400.261 34.1052C399.985 34.1176 399.714 34.13 399.45 34.1424L399.454 34.3367C398.4 34.622 397.338 34.9466 396.236 34.9321C392.867 34.9218 389.498 34.9404 386.128 34.9197C379.528 34.9301 372.928 34.9404 366.33 34.9156C363.097 34.9445 359.867 34.9197 356.636 34.928C355.033 34.866 353.409 35.0748 351.822 34.7853C351.843 29.0254 351.824 23.2656 351.831 17.5036C351.843 16.3913 351.756 15.2666 351.967 14.1667C352.437 13.6313 353.044 13.2529 353.636 12.8663C357.525 12.8312 361.418 12.7898 365.305 12.887C365.491 13.0731 365.709 13.2198 365.943 13.3522C366.174 13.5961 366.401 13.8484 366.632 14.0985C366.708 17.1604 366.636 20.2243 366.669 23.2883C366.801 23.6852 366.929 24.0843 367.075 24.4812C367.166 24.475 367.345 24.4585 367.436 24.4502C367.442 24.5226 367.455 24.6673 367.461 24.7376C367.7 24.9009 367.94 25.0684 368.181 25.24C374.439 25.2751 380.698 25.2544 386.958 25.2503C387.063 25.1138 387.177 24.9774 387.294 24.843C387.437 24.8347 387.723 24.8141 387.866 24.8058C387.864 24.7086 387.859 24.5143 387.855 24.4192C387.956 24.4192 388.157 24.4192 388.256 24.4192C388.278 24.3013 388.32 24.0636 388.342 23.9457C388.538 23.7059 388.749 23.4496 388.705 23.1126C388.722 19.7261 388.699 16.3417 388.714 12.9552C388.687 12.4673 388.792 11.905 388.417 11.5225C388.272 11.2971 388.146 11.0718 388.016 10.8444C387.833 10.6583 387.651 10.4722 387.476 10.2882C387.461 10.2407 387.434 10.1456 387.422 10.098C386.987 9.9016 386.566 9.68452 386.161 9.44056C385.906 9.2855 385.625 9.14285 385.322 9.17179C374.191 9.17179 363.06 9.17386 351.932 9.17179C351.925 6.91208 351.94 4.65237 351.923 2.39059C352.443 2.04946 352.485 1.3796 352.627 0.831732C352.47 1.06535 352.328 1.30518 352.171 1.53466C352.165 1.41062 352.152 1.16252 352.146 1.03848C352.518 0.777978 352.932 0.581572 353.314 0.327277Z" fill="white"/>
<path d="M414.812 0.19154C415.14 0.0633587 415.485 -0.0048672 415.848 0.00547002C430.567 0.0116723 445.285 0.00547046 460.002 0.0075379C460.551 -0.0317435 461.031 0.255632 461.51 0.48305C461.698 0.704267 461.894 0.923415 462.098 1.13843C462.28 1.46509 462.385 1.82482 462.362 2.20523C462.35 3.92534 462.374 5.64959 462.344 7.3697C461.966 7.86382 461.564 8.33726 461.079 8.72181C457.902 8.81484 454.724 8.74042 451.547 8.76523C443.076 8.75696 434.602 8.7797 426.131 8.75282C425.836 8.88721 425.549 9.02779 425.266 9.17251C425.103 9.38339 424.945 9.59427 424.79 9.80308C424.755 10.5412 424.761 11.2792 424.804 12.0152L425.058 12.009C425.06 12.0897 425.062 12.253 425.062 12.3336C425.351 12.4928 425.646 12.6603 425.937 12.8298C437.293 12.8422 448.648 12.8319 460.004 12.834C460.596 12.8091 461.116 13.1358 461.654 13.3425C461.867 13.6547 462.092 13.9669 462.335 14.2626C462.37 15.9558 462.377 17.6511 462.331 19.3443C462.154 19.5449 461.982 19.7495 461.819 19.9542C461.679 20.1837 461.547 20.4173 461.423 20.651C460.885 20.7502 460.348 20.8846 459.804 20.8804C453.334 20.8742 446.866 20.8804 440.396 20.8784C435.452 20.9052 430.507 20.8225 425.566 20.9197C425.242 21.2877 424.932 21.664 424.66 22.0672C424.666 22.7039 424.666 23.3407 424.676 23.9775C424.736 23.9899 424.858 24.0105 424.92 24.023C425.209 24.422 425.588 24.8933 426.145 24.8417C437.018 24.8582 447.893 24.8479 458.766 24.8479C459.463 24.8789 460.231 24.7135 460.868 25.0939C461.607 25.4433 462.428 26.0987 462.362 27.0083C462.348 29.1399 462.379 31.2735 462.339 33.405C461.741 34.3395 460.712 34.9701 459.587 34.9308C454.77 34.9184 449.954 34.9391 445.141 34.9204C444.175 34.9308 443.214 34.9328 442.255 34.9142C433.73 34.9494 425.207 34.9101 416.682 34.9328C415.658 35.0176 414.682 34.6806 413.777 34.2506C412.805 33.7668 412.033 32.9957 411.342 32.1769C411.206 31.9557 411.08 31.7345 410.956 31.5133C410.8 31.1205 410.661 30.7235 410.513 30.3307C410.278 29.5947 410.358 28.8132 410.348 28.0545C410.35 21.0934 410.35 14.1323 410.348 7.17123C410.356 6.41041 410.274 5.62685 410.538 4.89497C410.961 2.95158 412.399 1.37825 414.14 0.493387C414.363 0.396217 414.579 0.292845 414.812 0.19154Z" fill="white"/>
<path d="M338.847 20.6882L338.781 20.5352C340.046 20.5207 341.356 20.3016 342.59 20.6799C342.935 20.8039 343.285 20.9239 343.634 21.0541C344.057 21.3001 344.482 21.5524 344.915 21.788C345.528 22.2842 346.083 22.8466 346.578 23.4627C346.758 23.8245 346.947 24.1821 347.133 24.546C347.218 24.6659 347.306 24.7858 347.399 24.9057C347.438 25.3234 347.544 25.7369 347.797 26.0801C347.896 27.12 347.894 28.1702 347.804 29.2122C347.558 29.5534 347.43 29.9503 347.391 30.3679C347.246 30.6305 347.104 30.8931 346.97 31.1598C346.483 32.0715 345.751 32.8054 344.987 33.4877C344.804 33.5931 344.624 33.6986 344.449 33.8061C344.15 33.9715 343.836 34.1141 343.529 34.2465C343.525 34.3105 343.516 34.4408 343.51 34.507C343.168 34.5194 342.825 34.5338 342.491 34.5462L342.497 34.7571C342.404 34.7612 342.217 34.7716 342.124 34.7778C340.616 35.1479 339.054 34.8564 337.653 34.2485C337.393 34.0935 337.137 33.9405 336.885 33.7854C336.561 33.5952 336.242 33.4009 335.922 33.2148C335.916 33.1342 335.903 32.9708 335.895 32.8902C335.796 32.8902 335.596 32.8923 335.495 32.8943C335.495 32.791 335.493 32.5842 335.493 32.4809C335.416 32.4767 335.264 32.4726 335.187 32.4685C335.037 32.2348 334.884 32.0012 334.74 31.7697C334.535 31.4327 334.329 31.0957 334.129 30.7607C333.861 30.0806 333.584 29.3962 333.469 28.6726C333.397 27.8415 333.456 27.0042 333.467 26.171C333.568 26.049 333.673 25.9271 333.782 25.8051C333.778 25.0794 334.174 24.4695 334.54 23.8762C334.731 23.5722 334.929 23.2704 335.128 22.9665C335.198 22.9045 335.336 22.7804 335.406 22.7184C336.041 22.0134 336.848 21.511 337.671 21.0582C338.055 20.9156 338.447 20.8019 338.847 20.6882Z" fill="white"/>
</svg>
